<?xml version="1.0" encoding="utf-8"?>
<!-- Generator: Adobe Illustrator 23.0.1, SVG Export Plug-In . SVG Version: 6.00 Build 0)  -->
<svg version="1.1" id="Camada_1" xmlns="http://www.w3.org/2000/svg" xmlns:xlink="http://www.w3.org/1999/xlink" x="0px" y="0px"
	 viewBox="0 0 50 50" style="enable-background:new 0 0 50 50;" xml:space="preserve">
<style type="text/css">
	.st0{fill:#FFFFFF;}
</style>
<g>
	<path class="st0" d="M36.12,42.33H10.67c-0.3,0-0.55-0.24-0.55-0.55V4.92c0-0.3,0.24-0.55,0.55-0.55h25.45
		c0.3,0,0.55,0.24,0.55,0.55v36.87C36.66,42.08,36.42,42.33,36.12,42.33 M11.22,41.24h24.36V5.46H11.22V41.24z"/>
	<path class="st0" d="M39.33,45.63H13.88c-0.3,0-0.55-0.24-0.55-0.55v-3.13c0-0.3,0.24-0.55,0.55-0.55c0.3,0,0.55,0.24,0.55,0.55
		v2.59h24.36V8.76H14.43v18.65h8.93v-6.79c0-0.3,0.24-0.55,0.55-0.55c0.3,0,0.55,0.24,0.55,0.55v7.34c0,0.3-0.24,0.55-0.55,0.55
		H13.88c-0.3,0-0.55-0.24-0.55-0.55V8.22c0-0.3,0.24-0.55,0.55-0.55h25.45c0.3,0,0.55,0.24,0.55,0.55v36.87
		C39.88,45.39,39.63,45.63,39.33,45.63"/>
	<path class="st0" d="M23.58,38.94c-0.3,0-0.55-0.24-0.55-0.55v-6.5c0-0.3,0.24-0.55,0.55-0.55c0.3,0,0.55,0.24,0.55,0.55v6.5
		C24.12,38.7,23.88,38.94,23.58,38.94"/>
</g>
</svg>
