<?xml version="1.0" encoding="utf-8"?>
<!-- Generator: Adobe Illustrator 23.0.1, SVG Export Plug-In . SVG Version: 6.00 Build 0)  -->
<svg version="1.1" id="Camada_1" xmlns="http://www.w3.org/2000/svg" xmlns:xlink="http://www.w3.org/1999/xlink" x="0px" y="0px"
	 viewBox="0 0 50 50" style="enable-background:new 0 0 50 50;" xml:space="preserve">
<style type="text/css">
	.st0{fill:#FFFFFF;}
</style>
<g>
	<path class="st0" d="M26.51,38.31c-7.38,0-13.61-6.09-13.61-13.29c0-0.3,0.25-0.55,0.55-0.55h10.08c0.3,0,0.55,0.25,0.55,0.55
		c0,0.3-0.25,0.55-0.55,0.55h-9.52c0.31,6.37,5.91,11.65,12.5,11.65c8.04,0,18.83-10.12,20.97-12.21
		c-2.1-2.16-12.85-12.72-22.19-12.06c-0.3,0.02-0.56-0.21-0.59-0.51c-0.02-0.3,0.21-0.56,0.51-0.59c4.59-0.32,9.93,1.74,15.89,6.14
		c4.4,3.24,7.52,6.63,7.55,6.66c0.2,0.21,0.19,0.55-0.01,0.75c-0.03,0.03-3.2,3.25-7.47,6.43C35.4,36.13,30.47,38.31,26.51,38.31"/>
	<path class="st0" d="M23.49,38.31c-4.29,0-9.32-2.18-14.97-6.48c-4.17-3.18-7.15-6.41-7.18-6.44c-0.19-0.21-0.19-0.52-0.01-0.73
		c0.03-0.03,3.01-3.45,7.18-6.72c5.66-4.44,10.71-6.52,15.01-6.21c6.83,0.5,13.89,5.61,13.89,13.29
		C37.41,32.22,31.04,38.31,23.49,38.31 M2.5,25c1.99,2.06,12.25,12.21,20.99,12.21c6.95,0,12.83-5.59,12.83-12.2
		c0-7.05-6.54-11.74-12.87-12.2C14.73,12.19,4.46,22.86,2.5,25"/>
</g>
</svg>
